<svg width="18" height="22" viewBox="0 0 18 22" fill="none" xmlns="http://www.w3.org/2000/svg">
<path d="M2.93398 0.600098C1.49792 0.600098 0.333984 1.76403 0.333984 3.2001V18.8001C0.334028 19.0308 0.426015 19.2519 0.589584 19.4146C0.895373 20.51 1.74696 21.4001 2.93398 21.4001H16.8007C17.1132 21.4045 17.4039 21.2403 17.5615 20.9703C17.7191 20.7004 17.7191 20.3665 17.5615 20.0965C17.4039 19.8266 17.1132 19.6623 16.8007 19.6668H2.93398C2.44429 19.6668 2.06732 19.2898 2.06732 18.8001C2.06732 18.3104 2.44429 17.9334 2.93398 17.9334H15.934C16.8916 17.9334 17.6673 17.1578 17.6673 16.2001V2.33343C17.6673 1.37577 16.8917 0.600099 15.934 0.600099L2.93398 0.600098ZM6.40065 5.8001H12.4673C12.9457 5.8001 13.334 6.18836 13.334 6.66676C13.334 7.14516 12.9457 7.53343 12.4673 7.53343H6.40065C5.92225 7.53343 5.53398 7.14516 5.53398 6.66676C5.53398 6.18836 5.92225 5.8001 6.40065 5.8001Z" fill="#7A0076"/>
</svg>
