<svg width="20" height="20" viewBox="0 0 20 20" fill="none" xmlns="http://www.w3.org/2000/svg">
<path d="M2 0C0.894999 0 0 0.895001 0 2V14C0 15.105 0.895001 16 2 16H14C15.105 16 16 15.105 16 14V2C16 0.894999 15.105 0 14 0H2ZM12 4C12.256 4 12.512 4.09797 12.707 4.29297C13.097 4.68297 13.097 5.31703 12.707 5.70703L7.70703 10.707C7.31703 11.098 6.68297 11.098 6.29297 10.707L3.29297 7.70703C2.90297 7.31703 2.90297 6.68297 3.29297 6.29297C3.68297 5.90297 4.31703 5.90297 4.70703 6.29297L7 8.58594L11.293 4.29297C11.488 4.09797 11.744 4 12 4H12ZM19 4C18.448 4 18 4.448 18 5V18H5C4.448 18 4 18.448 4 19C4 19.552 4.448 20 5 20H18C19.105 20 20 19.105 20 18V5C20 4.448 19.552 4 19 4L19 4Z" fill="#7A0076"/>
</svg>
