<svg width="20" height="20" viewBox="0 0 20 20" fill="none" xmlns="http://www.w3.org/2000/svg">
<path d="M2.75 2.66142e-06C1.2335 2.66142e-06 0 1.234 0 2.75V15.25C0 16.766 1.2335 18 2.75 18H11.5518C11.5208 17.8365 11.5 17.6705 11.5 17.5V16.5C11.5 15.147 12.5823 14.0478 13.9258 14.0078C13.6433 13.7173 13.41 13.3795 13.251 13H9.75C9.3355 13 9 12.664 9 12.25C9 11.836 9.3355 11.5 9.75 11.5H13.0127C13.1412 9.8245 14.542 8.5 16.25 8.5C16.8945 8.5 17.494 8.69113 18 9.01563V2.75C18 1.234 16.7665 0 15.25 0L2.75 2.66142e-06ZM7.5 3.5C7.69187 3.5 7.88377 3.57323 8.03027 3.71973C8.32327 4.01273 8.32277 4.48728 8.03027 4.78028L5.53027 7.28028C5.38377 7.42678 5.192 7.5 5 7.5C4.808 7.5 4.61623 7.42678 4.46973 7.28028L3.21973 6.03028C2.92673 5.73728 2.92673 5.26273 3.21973 4.96973C3.51273 4.67673 3.98727 4.67673 4.28027 4.96973L5 5.68946L6.96973 3.71973C7.11623 3.57323 7.30813 3.5 7.5 3.5V3.5ZM9.75 5H14.25C14.6645 5 15 5.336 15 5.75C15 6.164 14.6645 6.5 14.25 6.5H9.75C9.3355 6.5 9 6.164 9 5.75C9 5.336 9.3355 5 9.75 5ZM16.25 9.5C15.0074 9.5 14 10.5074 14 11.75C14 12.9926 15.0074 14 16.25 14C17.4926 14 18.5 12.9926 18.5 11.75C18.5 10.5074 17.4926 9.5 16.25 9.5ZM7.5 10C7.69187 10 7.88377 10.0732 8.03027 10.2197C8.32327 10.5127 8.32277 10.9873 8.03027 11.2803L5.53027 13.7803C5.38377 13.9268 5.192 14 5 14C4.808 14 4.61623 13.9268 4.46973 13.7803L3.21973 12.5303C2.92673 12.2373 2.92673 11.7627 3.21973 11.4697C3.51273 11.1767 3.98727 11.1767 4.28027 11.4697L5 12.1895L6.96973 10.2197C7.11623 10.0732 7.30813 10 7.5 10V10ZM14 15C13.1715 15 12.5 15.6715 12.5 16.5V17.5C12.5 18.8805 14.179 20 16.25 20C18.321 20 20 18.8805 20 17.5V16.5C20 15.6715 19.3285 15 18.5 15H14Z" fill="#7A0076"/>
</svg>
