<svg width="20" height="24" viewBox="0 0 20 24" fill="none" xmlns="http://www.w3.org/2000/svg">
<path d="M19.6888 22.7997L17.1358 20.2467C17.6098 19.566 17.8479 18.7698 17.8479 17.9729C17.8479 16.9532 17.4598 15.9335 16.6835 15.1572C15.1309 13.6046 12.6046 13.6046 11.052 15.1572C9.49937 16.7098 9.49932 19.2361 11.0519 20.7888C12.4348 22.1717 14.5897 22.3217 16.1415 21.2411L18.6945 23.7941C18.9691 24.0687 19.4142 24.0687 19.6888 23.7941C19.8261 23.6568 19.8947 23.4768 19.8947 23.2969C19.8947 23.1169 19.8261 22.937 19.6888 22.7997Z" fill="#7A0076"/>
<path d="M8.66684 1.6492H9.95426C11.0251 1.6492 12.0568 1.81964 13.0243 2.13366C12.4492 0.885703 11.0038 0 9.31057 0C7.61731 0 6.17197 0.885703 5.59677 2.13366C6.56431 1.81964 7.59598 1.6492 8.66684 1.6492Z" fill="#7A0076"/>
<path d="M16.8719 13.1415V13.498C17.1585 13.691 17.4286 13.913 17.6783 14.1627C17.8423 14.3267 17.9942 14.4995 18.134 14.68C18.3802 14.0116 18.515 13.2893 18.515 12.5354V11.6164C18.515 6.88822 14.682 3.05534 9.95391 3.05534H8.66648C3.93834 3.05534 0.105469 6.88827 0.105469 11.6164V12.5354C0.105469 14.1581 0.728719 15.6351 1.74853 16.7407V13.1415C1.74853 10.103 4.22053 7.631 7.25906 7.631H11.3614C14.3999 7.631 16.8719 10.103 16.8719 13.1415Z" fill="#7A0076"/>
<path d="M10.0583 21.783C9.8805 21.6052 9.71812 21.4178 9.57047 21.2227C9.48459 21.2307 9.39787 21.2351 9.31045 21.2351C8.30128 21.2351 7.37742 20.6931 6.89929 19.8208C6.71264 19.4802 6.83747 19.0529 7.17797 18.8663C7.28522 18.8075 7.40104 18.7796 7.51528 18.7796C7.76376 18.7796 8.00461 18.9116 8.13248 19.1449C8.27531 19.4056 8.50237 19.605 8.77186 19.7195C8.12943 17.835 8.55801 15.663 10.0583 14.1627C11.0748 13.1462 12.4279 12.5864 13.8684 12.5864C14.4138 12.5864 14.9467 12.6668 15.4536 12.8218C15.2904 10.7045 13.5207 9.03731 11.3616 9.03731H7.25925C4.99251 9.03731 3.15497 10.8749 3.15497 13.1416V17.8445C3.15497 21.244 5.91084 23.9999 9.3104 23.9999C10.4418 23.9999 11.5016 23.6944 12.4126 23.1618C11.5305 22.9163 10.7225 22.4472 10.0583 21.783Z" fill="#7A0076"/>
</svg>
