<svg width="20" height="19" viewBox="0 0 20 19" fill="none" xmlns="http://www.w3.org/2000/svg">
<path d="M9.67774 0.1815C9.25563 0.220124 8.8798 0.527765 8.7793 0.972516L8.22461 3.41783L5.51367 6.42955C5.18267 6.79655 5 7.27344 5 7.76744V16.9999C5 18.1049 5.895 18.9999 7 18.9999H15.0313C15.7723 18.9999 16.4431 18.5636 16.7441 17.8866L19.7461 11.1307C19.9131 10.7567 20 10.3513 20 9.94127V8.99986C20 7.89986 19.1 6.99986 18 6.99986H11C11 6.99986 12 4.62914 12 2.86314C12 1.25014 10.9624 0.54419 10.1074 0.236189C9.96467 0.184438 9.81844 0.168626 9.67774 0.181501V0.1815ZM1.5 6.99986C0.672 6.99986 0 7.67186 0 8.49986V17.4999C0 18.3279 0.672 18.9999 1.5 18.9999C2.328 18.9999 3 18.3279 3 17.4999V8.49986C3 7.67186 2.328 6.99986 1.5 6.99986Z" fill="#7A0076"/>
</svg>
