<svg width="20" height="21" viewBox="0 0 20 21" fill="none" xmlns="http://www.w3.org/2000/svg">
<path d="M16.4919 0.992188C16.1866 0.992261 15.9118 1.1774 15.797 1.46033C15.6823 1.74327 15.7505 2.06753 15.9695 2.28027L17.8581 4.16895C18.0472 4.358 18.0472 4.64103 17.8581 4.83008L16.3796 6.30957L12.2849 2.21484C12.0968 2.01892 11.8174 1.93999 11.5546 2.00851C11.2918 2.07703 11.0865 2.28228 11.018 2.54511C10.9495 2.80794 11.0284 3.08728 11.2243 3.27539L15.7624 7.81348C15.8098 7.87931 15.8675 7.93702 15.9333 7.98437L17.0124 9.06348C17.6713 9.72236 17.6713 10.7679 17.0124 11.4268L12.9314 15.5078C12.2725 16.1667 11.227 16.1667 10.5681 15.5078L4.78 9.71973C4.59189 9.5238 4.31256 9.44488 4.04973 9.5134C3.7869 9.58192 3.58165 9.78717 3.51313 10.05C3.44461 10.3128 3.52354 10.5922 3.71946 10.7803L4.84446 11.9053L1.7927 14.957C1.4027 15.347 1.4027 15.9811 1.7927 16.3711L2.48215 17.0605L1.14621 18.3965C1.11521 18.428 1.08814 18.4635 1.06614 18.502L0.0661366 20.252C-0.0458639 20.448 -0.0132853 20.694 0.146214 20.8535C0.242214 20.95 0.370231 21 0.49973 21C0.584731 21 0.670277 20.9781 0.747777 20.9336L2.49778 19.9336C2.53628 19.9116 2.57175 19.885 2.60325 19.8535L3.93918 18.5176L4.62961 19.208C4.81861 19.396 5.06917 19.5 5.33567 19.5C5.60217 19.5 5.8527 19.396 6.0427 19.207L9.09446 16.1553L9.50754 16.5684C10.7397 17.8005 12.7598 17.8005 13.9919 16.5684L18.073 12.4873C19.3051 11.2552 19.3051 9.23505 18.073 8.00293L17.4402 7.37012L18.9187 5.89063C19.6806 5.12868 19.6806 3.87035 18.9187 3.1084L17.03 1.21973C16.8888 1.07428 16.6947 0.992196 16.4919 0.992188ZM10.7497 5.25C10.5579 5.25 10.366 5.32323 10.2195 5.46973L6.96946 8.71973C6.67646 9.01223 6.67646 9.48778 6.96946 9.78028L7.96946 10.7803C8.11546 10.9273 8.30773 11 8.49973 11C8.69173 11 8.88351 10.9268 9.03001 10.7803L12.28 7.53028C12.5725 7.23728 12.5725 6.76273 12.28 6.46973L11.28 5.46973C11.1335 5.32323 10.9416 5.25 10.7497 5.25ZM13.9997 8.5C13.8079 8.5 13.616 8.57323 13.4695 8.71973L10.2195 11.9697C9.92646 12.2622 9.92646 12.7378 10.2195 13.0303L11.2195 14.0303C11.366 14.1768 11.5587 14.249 11.7507 14.249C11.9427 14.249 12.1345 14.1768 12.281 14.0303L15.531 10.7803C15.823 10.4878 15.8225 10.0127 15.53 9.71973L14.53 8.71973C14.3835 8.57323 14.1916 8.5 13.9997 8.5Z" fill="#7A0076"/>
</svg>
