<svg width="16" height="24" viewBox="0 0 16 24" fill="none" xmlns="http://www.w3.org/2000/svg">
<path d="M7.91082 0.00109703C7.91082 0.00109703 -0.406042 -0.369342 0.546732 12.5041C0.546732 12.5041 0.494421 23.0458 5.20886 23.9999C5.20886 23.9999 3.14338 21.6159 3.72571 19.9193C3.72571 19.9193 6.32167 19.4422 5.95146 15.4712C5.95146 15.4712 3.77895 13.5636 3.51382 12.2397C3.51382 12.2397 3.51382 8.10675 3.8853 7.57707C3.8853 7.57707 5.95146 7.73597 6.16267 7.57707C6.16267 7.57707 7.85851 6.04059 8.22895 5.24659C8.22895 5.24659 8.54685 6.62315 7.75297 7.47245H9.9241C9.9241 7.47245 10.613 6.78354 10.7176 6.04185C10.7176 6.04185 10.9295 7.36645 10.6131 7.52396H11.8851C11.8851 7.52396 12.5734 11.1794 12.4142 12.2395C12.4142 12.2395 11.1962 14.94 9.97676 15.4163C9.97676 15.4163 9.55228 19.4969 12.5194 20.0251C12.5194 20.0251 12.2541 23.6812 10.4525 23.8398C10.4525 23.8398 13.4729 24.6346 15.222 18.1715C15.222 18.1715 16.0695 9.16645 14.9386 6.23508C14.94 6.23589 13.8455 0.690011 7.91082 0.00109703Z" fill="#7A0076"/>
</svg>
