<svg width="14" height="24" viewBox="0 0 14 24" fill="none" xmlns="http://www.w3.org/2000/svg">
<path d="M7.74937 9.70911C6.58603 8.62705 5.27264 7.00892 5.22537 4.58082C5.81275 6.55869 7.82169 9.37539 13.2226 13.0676C13.2226 13.0676 7.29324 4.76659 9.29972 0.113339C9.29972 0.113339 8.19249 -0.457098 5.98207 0.961506C5.98354 0.958068 5.98465 0.95377 5.98612 0.949719C5.98612 0.949719 2.29939 3.42018 2.91514 6.11865C3.03607 6.65176 2.95148 7.29648 1.66855 7.91369C1.4112 8.03647 0.953718 8.18663 1.07552 8.88648C1.07552 8.88648 1.19989 9.3846 1.4484 9.57503C1.46068 9.58449 1.47504 9.59013 1.48622 9.60118C1.80557 9.90531 1.25097 9.81863 1.07638 9.87437C0.779124 9.96977 0.77188 10.5586 1.24323 11.0757C1.24323 11.0757 0.482977 11.8362 0.908903 12.5054C0.908903 12.5054 1.01474 12.6261 1.45663 12.5658C1.45663 12.5658 1.11665 14.9656 2.96179 14.9071C4.04754 14.8715 6.41352 13.9793 7.27949 15.3789C7.27949 15.3789 10.2142 18.9827 6.65638 24C6.65638 24 10.7604 22.4802 11.1864 17.8257C11.1856 17.8277 12.4939 14.1177 7.74937 9.70911Z" fill="#7A0076"/>
</svg>
