<svg width="54" height="46" viewBox="0 0 54 46" fill="none" xmlns="http://www.w3.org/2000/svg">
<path d="M0.75 6.75H53.25V43H0.75V6.75Z" fill="#7E57C2"/>
<path d="M27 33C23.5482 33 20.75 35.7982 20.75 39.25C20.75 42.7018 23.5482 45.5 27 45.5C30.4518 45.5 33.25 42.7018 33.25 39.25C33.25 35.7982 30.4518 33 27 33Z" fill="#7E57C2"/>
<path d="M27 35.5C24.9289 35.5 23.25 37.1789 23.25 39.25C23.25 41.3211 24.9289 43 27 43C29.0711 43 30.75 41.3211 30.75 39.25C30.75 37.1789 29.0711 35.5 27 35.5Z" fill="#5E35B1"/>
<path d="M47 3L28.25 6.75H25.75L7 3L4.5 9.25V39.25H49.5V9.25L47 3Z" fill="#D7CCC8"/>
<path d="M7 35.5H25.75V39.25H28.25V35.5H47L49.5 39.25H4.5L7 35.5Z" fill="#BCAAA4"/>
<path d="M47 3C47 3 28.25 3 28.25 6.75C28.25 10.5 28.25 39.25 28.25 39.25C28.25 35.5 47 35.5 47 35.5V3ZM7 3C7 3 25.75 3 25.75 6.75C25.75 10.5 25.75 39.25 25.75 39.25C25.75 35.5 7 35.5 7 35.5V3Z" fill="#EFEBE9"/>
<path d="M18.75 0.874999L19 1.875C19.125 2.75 19.875 3.375 20.625 3.5L21.625 3.75C22.125 3.875 22.125 4.625 21.625 4.625L20.625 4.875C19.75 5 19.125 5.75 19 6.5L18.75 7.5C18.625 8 17.875 8 17.875 7.5L17.625 6.5C17.5 5.625 16.75 5 16 4.875L15 4.625C14.5 4.5 14.5 3.75 15 3.75L16 3.5C16.875 3.375 17.5 2.625 17.625 1.875L17.875 0.874999C17.875 0.375 18.625 0.375 18.75 0.874999Z" fill="#FF8A65"/>
<path d="M39.75 15.75L39.875 16.5C40 17 40.375 17.5 41 17.625L41.75 17.75C42.125 17.875 42.125 18.25 41.75 18.375L41 18.5C40.5 18.625 40 19 39.875 19.625L39.75 20.375C39.625 20.75 39.25 20.75 39.125 20.375L39 19.625C38.875 19.125 38.5 18.625 37.875 18.5L37.125 18.375C36.75 18.25 36.75 17.875 37.125 17.75L37.875 17.625C38.375 17.5 38.875 17.125 39 16.5L39.125 15.75C39.25 15.375 39.75 15.375 39.75 15.75Z" fill="#FF7043"/>
<path d="M21 24.5L21.125 25.25C21.25 25.75 21.625 26.25 22.25 26.375L23 26.5C23.375 26.625 23.375 27 23 27.125L22.25 27.25C21.75 27.375 21.25 27.75 21.125 28.375L21 29.125C20.875 29.5 20.5 29.5 20.375 29.125L20.25 28.375C20.125 27.875 19.75 27.375 19.125 27.25L18.375 27.125C18 27 18 26.625 18.375 26.5L19.125 26.375C19.625 26.25 20.125 25.875 20.25 25.25L20.375 24.5C20.5 24.125 21 24.125 21 24.5Z" fill="#FF8A65"/>
</svg>
